<svg xmlns="http://www.w3.org/2000/svg" viewBox="0 0 32 32" shape-rendering="crispEdges">
  <rect width="32" height="32" fill="#dfe8ef"/>
  <rect x="2" y="2" width="28" height="28" fill="#f7fbff"/>
  <rect x="6" y="5" width="12" height="3" fill="#3e4a53"/>
  <rect x="6" y="20" width="12" height="3" fill="#3e4a53"/>
  <rect x="4" y="9" width="3" height="10" fill="#3e4a53"/>
  <rect x="17" y="9" width="3" height="10" fill="#3e4a53"/>
  <rect x="8" y="8" width="8" height="3" fill="#687987"/>
  <rect x="8" y="17" width="8" height="3" fill="#687987"/>
  <rect x="7" y="11" width="10" height="6" fill="#687987"/>
  <rect x="10" y="12" width="4" height="4" fill="#f7fbff"/>
  <rect x="19" y="14" width="8" height="3" fill="#5b6874"/>
  <rect x="19" y="25" width="8" height="3" fill="#5b6874"/>
  <rect x="17" y="17" width="3" height="8" fill="#5b6874"/>
  <rect x="26" y="17" width="3" height="8" fill="#5b6874"/>
  <rect x="20" y="17" width="6" height="8" fill="#8fa0ad"/>
  <rect x="22" y="19" width="3" height="4" fill="#f7fbff"/>
</svg>
